#Comment line ignore any data following # character 
#Hierarchical Translation and Rotation (.htr) file 
[Header]	
#Header keywords are followed by a single value 
FileType HTR		#Single word string
DataType HTRS		#Translation followed by rotation and scale data
FileVersion 1		#integer
NumSegments 84		#integer
NumFrames 2		#integer
DataFrameRate 30		#integer, data frame rate in this file
EulerRotationOrder ZYX
CalibrationUnits mm
RotationUnits Degrees
GlobalAxisofGravity Y
BoneLengthAxis Y
ScaleFactor 1.00
[SegmentNames&Hierarchy]
#CHILD	PARENT
MASTER GLOBAL
root MASTER
chest root
L_mid_tent01 root
R_mid_tent01 root
spine01 root
Bip01_Neck chest
L_humerus chest
R_humerus chest
weapon_bone chest
Bip01_Head Bip01_Neck
eye_left_bone Bip01_Head
eye_right_bone Bip01_Head
L_forearm L_humerus
L_front_hand L_forearm
L_weapon_bone L_forearm
L_front_hand01_01 L_front_hand
L_front_hand02_01 L_front_hand
L_front_hand03_01 L_front_hand
L_front_hand01_02 L_front_hand01_01
L_front_hand02_02 L_front_hand02_01
L_front_hand03_02 L_front_hand03_01
R_forearm R_humerus
R_front_hand R_forearm
R_weapon_bone R_forearm
R_front_hand01_01 R_front_hand
R_front_hand02_01 R_front_hand
R_front_hand03_01 R_front_hand
R_front_hand01_02 R_front_hand01_01
R_front_hand02_02 R_front_hand02_01
R_front_hand03_02 R_front_hand03_01
null_rope01_connect L_mid_tent01
Rope1_Seg01 null_rope01_connect
Rope1_Seg02 Rope1_Seg01
Rope1_Seg03 Rope1_Seg02
Rope1_Seg04 Rope1_Seg03
Rope1_Seg05 Rope1_Seg04
Rope1_Seg06 Rope1_Seg05
Rope1_Seg07 Rope1_Seg06
Rope1_Seg09 Rope1_Seg07
L_mid_hand01 Rope1_Seg09
L_mid_hand02 Rope1_Seg09
L_mid_hand03 Rope1_Seg09
null_rope02_connect R_mid_tent01
Rope2_Seg01 null_rope02_connect
Rope2_Seg02 Rope2_Seg01
Rope2_Seg03 Rope2_Seg02
Rope2_Seg04 Rope2_Seg03
Rope2_Seg05 Rope2_Seg04
Rope2_Seg06 Rope2_Seg05
Rope2_Seg07 Rope2_Seg06
Rope2_Seg09 Rope2_Seg07
R_mid_hand01 Rope2_Seg09
R_mid_hand02 Rope2_Seg09
R_mid_hand03 Rope2_Seg09
spine02 spine01
spine03 spine02
pelvis spine03
null_rope03_connect pelvis
null_rope04_connect pelvis
Rope3_Seg01 null_rope03_connect
Rope3_Seg02 Rope3_Seg01
Rope3_Seg03 Rope3_Seg02
Rope3_Seg04 Rope3_Seg03
Rope3_Seg05 Rope3_Seg04
Rope3_Seg06 Rope3_Seg05
Rope3_Seg07 Rope3_Seg06
Rope3_Seg08 Rope3_Seg07
Rope3_Seg09 Rope3_Seg08
R_rear_hand01 Rope3_Seg09
R_rear_hand02 Rope3_Seg09
R_rear_hand03 Rope3_Seg09
Rope4_Seg01 null_rope04_connect
Rope4_Seg02 Rope4_Seg01
Rope4_Seg03 Rope4_Seg02
Rope4_Seg04 Rope4_Seg03
Rope4_Seg05 Rope4_Seg04
Rope4_Seg06 Rope4_Seg05
Rope4_Seg07 Rope4_Seg06
Rope4_Seg08 Rope4_Seg07
Rope4_Seg09 Rope4_Seg08
L_rear_hand01 Rope4_Seg09
L_rear_hand02 Rope4_Seg09
L_rear_hand03 Rope4_Seg09
[BasePosition]
#SegmentName Tx, Ty, Tz, Rx, Ry, Rz, BoneLength
MASTER 0.000000 0.000000 0.000000 -90.000000 0.000000 0.000000 10.000000 
root 0.000000 0.000000 0.000000 0.000000 0.000000 0.000000 10.000000 
chest 0.000000 0.000000 0.000000 0.000000 0.000000 0.000000 10.000000 
L_mid_tent01 0.000000 0.000000 0.000000 0.000000 0.000000 0.000000 10.000000 
R_mid_tent01 0.000000 0.000000 0.000000 0.000000 0.000000 0.000000 10.000000 
spine01 0.000000 0.000000 0.000000 0.000000 0.000000 0.000000 10.000000 
Bip01_Neck 0.000000 0.000000 0.000000 0.000000 0.000000 0.000000 10.000000 
L_humerus 0.000000 0.000000 0.000000 0.000000 0.000000 0.000000 10.000000 
R_humerus 0.000000 0.000000 0.000000 0.000000 0.000000 0.000000 10.000000 
weapon_bone 0.000000 0.000000 0.000000 0.000000 0.000000 0.000000 10.000000 
Bip01_Head 0.000000 0.000000 0.000000 0.000000 0.000000 0.000000 10.000000 
eye_left_bone 0.000000 0.000000 0.000000 0.000000 0.000000 0.000000 10.000000 
eye_right_bone 0.000000 0.000000 0.000000 0.000000 0.000000 0.000000 10.000000 
L_forearm 0.000000 0.000000 0.000000 0.000000 0.000000 0.000000 10.000000 
L_front_hand 0.000000 0.000000 0.000000 0.000000 0.000000 0.000000 10.000000 
L_weapon_bone 0.000000 0.000000 0.000000 0.000000 0.000000 0.000000 10.000000 
L_front_hand01_01 0.000000 0.000000 0.000000 0.000000 0.000000 0.000000 10.000000 
L_front_hand02_01 0.000000 0.000000 0.000000 0.000000 0.000000 0.000000 10.000000 
L_front_hand03_01 0.000000 0.000000 0.000000 0.000000 0.000000 0.000000 10.000000 
L_front_hand01_02 0.000000 0.000000 0.000000 0.000000 0.000000 0.000000 10.000000 
L_front_hand02_02 0.000000 0.000000 0.000000 0.000000 0.000000 0.000000 10.000000 
L_front_hand03_02 0.000000 0.000000 0.000000 0.000000 0.000000 0.000000 10.000000 
R_forearm 0.000000 0.000000 0.000000 0.000000 0.000000 0.000000 10.000000 
R_front_hand 0.000000 0.000000 0.000000 0.000000 0.000000 0.000000 10.000000 
R_weapon_bone 0.000000 0.000000 0.000000 0.000000 0.000000 0.000000 10.000000 
R_front_hand01_01 0.000000 0.000000 0.000000 0.000000 0.000000 0.000000 10.000000 
R_front_hand02_01 0.000000 0.000000 0.000000 0.000000 0.000000 0.000000 10.000000 
R_front_hand03_01 0.000000 0.000000 0.000000 0.000000 0.000000 0.000000 10.000000 
R_front_hand01_02 0.000000 0.000000 0.000000 0.000000 0.000000 0.000000 10.000000 
R_front_hand02_02 0.000000 0.000000 0.000000 0.000000 0.000000 0.000000 10.000000 
R_front_hand03_02 0.000000 0.000000 0.000000 0.000000 0.000000 0.000000 10.000000 
null_rope01_connect 0.000000 0.000000 0.000000 0.000000 0.000000 0.000000 10.000000 
Rope1_Seg01 0.000000 0.000000 0.000000 0.000000 0.000000 0.000000 10.000000 
Rope1_Seg02 0.000000 0.000000 0.000000 0.000000 0.000000 0.000000 10.000000 
Rope1_Seg03 0.000000 0.000000 0.000000 0.000000 0.000000 0.000000 10.000000 
Rope1_Seg04 0.000000 0.000000 0.000000 0.000000 0.000000 0.000000 10.000000 
Rope1_Seg05 0.000000 0.000000 0.000000 0.000000 0.000000 0.000000 10.000000 
Rope1_Seg06 0.000000 0.000000 0.000000 0.000000 0.000000 0.000000 10.000000 
Rope1_Seg07 0.000000 0.000000 0.000000 0.000000 0.000000 0.000000 10.000000 
Rope1_Seg09 0.000000 0.000000 0.000000 0.000000 0.000000 0.000000 10.000000 
L_mid_hand01 0.000000 0.000000 0.000000 0.000000 0.000000 0.000000 10.000000 
L_mid_hand02 0.000000 0.000000 0.000000 0.000000 0.000000 0.000000 10.000000 
L_mid_hand03 0.000000 0.000000 0.000000 0.000000 0.000000 0.000000 10.000000 
null_rope02_connect 0.000000 0.000000 0.000000 0.000000 0.000000 0.000000 10.000000 
Rope2_Seg01 0.000000 0.000000 0.000000 0.000000 0.000000 0.000000 10.000000 
Rope2_Seg02 0.000000 0.000000 0.000000 0.000000 0.000000 0.000000 10.000000 
Rope2_Seg03 0.000000 0.000000 0.000000 0.000000 0.000000 0.000000 10.000000 
Rope2_Seg04 0.000000 0.000000 0.000000 0.000000 0.000000 0.000000 10.000000 
Rope2_Seg05 0.000000 0.000000 0.000000 0.000000 0.000000 0.000000 10.000000 
Rope2_Seg06 0.000000 0.000000 0.000000 0.000000 0.000000 0.000000 10.000000 
Rope2_Seg07 0.000000 0.000000 0.000000 0.000000 0.000000 0.000000 10.000000 
Rope2_Seg09 0.000000 0.000000 0.000000 0.000000 0.000000 0.000000 10.000000 
R_mid_hand01 0.000000 0.000000 0.000000 0.000000 0.000000 0.000000 10.000000 
R_mid_hand02 0.000000 0.000000 0.000000 0.000000 0.000000 0.000000 10.000000 
R_mid_hand03 0.000000 0.000000 0.000000 0.000000 0.000000 0.000000 10.000000 
spine02 0.000000 0.000000 0.000000 0.000000 0.000000 0.000000 10.000000 
spine03 0.000000 0.000000 0.000000 0.000000 0.000000 0.000000 10.000000 
pelvis 0.000000 0.000000 0.000000 0.000000 0.000000 0.000000 10.000000 
null_rope03_connect 0.000000 0.000000 0.000000 0.000000 0.000000 0.000000 10.000000 
null_rope04_connect 0.000000 0.000000 0.000000 0.000000 0.000000 0.000000 10.000000 
Rope3_Seg01 0.000000 0.000000 0.000000 0.000000 0.000000 0.000000 10.000000 
Rope3_Seg02 0.000000 0.000000 0.000000 0.000000 0.000000 0.000000 10.000000 
Rope3_Seg03 0.000000 0.000000 0.000000 0.000000 0.000000 0.000000 10.000000 
Rope3_Seg04 0.000000 0.000000 0.000000 0.000000 0.000000 0.000000 10.000000 
Rope3_Seg05 0.000000 0.000000 0.000000 0.000000 0.000000 0.000000 10.000000 
Rope3_Seg06 0.000000 0.000000 0.000000 0.000000 0.000000 0.000000 10.000000 
Rope3_Seg07 0.000000 0.000000 0.000000 0.000000 0.000000 0.000000 10.000000 
Rope3_Seg08 0.000000 0.000000 0.000000 0.000000 0.000000 0.000000 10.000000 
Rope3_Seg09 0.000000 0.000000 0.000000 0.000000 0.000000 0.000000 10.000000 
R_rear_hand01 0.000000 0.000000 0.000000 0.000000 0.000000 0.000000 10.000000 
R_rear_hand02 0.000000 0.000000 0.000000 0.000000 0.000000 0.000000 10.000000 
R_rear_hand03 0.000000 0.000000 0.000000 0.000000 0.000000 0.000000 10.000000 
Rope4_Seg01 0.000000 0.000000 0.000000 0.000000 0.000000 0.000000 10.000000 
Rope4_Seg02 0.000000 0.000000 0.000000 0.000000 0.000000 0.000000 10.000000 
Rope4_Seg03 0.000000 0.000000 0.000000 0.000000 0.000000 0.000000 10.000000 
Rope4_Seg04 0.000000 0.000000 0.000000 0.000000 0.000000 0.000000 10.000000 
Rope4_Seg05 0.000000 0.000000 0.000000 0.000000 0.000000 0.000000 10.000000 
Rope4_Seg06 0.000000 0.000000 0.000000 0.000000 0.000000 0.000000 10.000000 
Rope4_Seg07 0.000000 0.000000 0.000000 0.000000 0.000000 0.000000 10.000000 
Rope4_Seg08 0.000000 0.000000 0.000000 0.000000 0.000000 0.000000 10.000000 
Rope4_Seg09 0.000000 0.000000 0.000000 0.000000 0.000000 0.000000 10.000000 
L_rear_hand01 0.000000 0.000000 0.000000 0.000000 0.000000 0.000000 10.000000 
L_rear_hand02 0.000000 0.000000 0.000000 0.000000 0.000000 0.000000 10.000000 
L_rear_hand03 0.000000 0.000000 0.000000 0.000000 0.000000 0.000000 10.000000 
#Beginning of Data. Separated by tabs
#Fr	Tx	Ty	Tz	Rx	Ry	Rz	SF
[MASTER]
46 -16.547308 7796.244629 5.390395 0.001660 0.001660 0.001660 7796.264160
47 -8.274324 8111.620117 2.695207 0.001660 0.001660 0.001660 8111.624512
[root]
46 -8.110638 -10.485383 1369.131348 -91.917007 -12.672313 -89.368408 1369.195435
47 -14.194299 3.902478 1426.542725 -91.778458 -11.867319 -89.442184 1426.618652
[chest]
46 -84.512650 -34.090519 0.000000 -1.524877 -2.727972 161.083420 91.129311
47 -84.512650 -34.090519 0.000000 -1.948524 -1.389777 164.785568 91.129311
[L_mid_tent01]
46 27.298603 22.178961 -249.918686 -19.933804 15.371589 18.075014 252.381592
47 27.298594 22.178959 -249.918686 -20.337530 13.704957 15.511886 252.381592
[R_mid_tent01]
46 23.228794 24.509907 226.238495 -167.070602 -20.015434 27.631289 228.744751
47 23.228794 24.509907 226.238495 -166.110794 -18.998793 25.828211 228.744751
[spine01]
46 -0.361383 -0.195265 0.000000 -0.000001 -0.000007 22.052340 0.410763
47 -0.361383 -0.195265 0.000000 -0.000001 -0.000007 22.052340 0.410763
[Bip01_Neck]
46 165.484543 71.581718 0.000119 176.643677 -1.657967 43.431911 180.302734
47 165.484543 71.581718 0.000119 176.643677 -1.657967 43.431911 180.302734
[L_humerus]
46 -13.983130 -135.272980 -120.471481 -3.071795 72.750435 87.123459 181.680161
47 -13.983130 -135.272980 -120.471481 -4.442844 70.943077 85.690903 181.680161
[R_humerus]
46 -13.983309 -135.273102 125.287651 30.062883 -74.046188 65.502190 184.909012
47 -13.983309 -135.273102 125.287651 29.058712 -72.082870 66.554939 184.909012
[weapon_bone]
46 235.964890 -300.705902 0.000000 0.000000 -89.951546 -128.212341 382.234833
47 235.964890 -300.705902 0.000000 0.000000 -89.951546 -128.212341 382.234833
[Bip01_Head]
46 203.286606 162.408447 31.616497 4.962490 2.797846 -43.898743 262.109772
47 203.286667 162.408447 31.616497 4.962490 2.797846 -43.898743 262.109833
[eye_left_bone]
46 -24.626970 125.451866 -64.772606 0.000000 -90.000000 -99.840431 143.318359
47 -24.626970 125.451866 -64.772606 0.000000 -90.000000 -99.840431 143.318359
[eye_right_bone]
46 -24.626970 125.451866 64.327362 0.000000 -89.965736 80.156380 143.117676
47 -24.626970 125.451866 64.327362 0.000000 -89.965736 80.156380 143.117676
[L_forearm]
46 322.776093 0.000000 -0.000119 0.000376 0.002317 -71.546188 322.776093
47 322.776093 0.000000 -0.000119 0.000028 -0.002347 -91.355728 322.776093
[L_front_hand]
46 241.149185 -0.042021 -3.300071 0.836591 -1.835726 -27.423462 241.171753
47 241.149185 -0.042021 -3.300071 0.836591 -1.835726 -27.423458 241.171753
[L_weapon_bone]
46 156.183838 0.000000 0.000000 0.000014 0.000007 0.000001 156.183838
47 156.183838 0.000000 0.000000 0.000014 0.000007 0.000001 156.183838
[L_front_hand01_01]
46 86.095154 20.947098 -0.655860 -0.366594 -0.477154 75.385574 88.609184
47 86.095154 20.947098 -0.655860 -0.366594 -0.477154 75.385574 88.609184
[L_front_hand02_01]
46 86.935165 -11.437475 24.513514 154.399796 -59.883835 -61.369587 91.046425
47 86.935165 -11.437475 24.513514 154.399796 -59.883835 -61.369587 91.046425
[L_front_hand03_01]
46 86.637497 -14.123976 -20.424902 -153.913849 58.118122 -62.702866 90.126129
47 86.637497 -14.123976 -20.424902 -153.913849 58.118107 -62.702866 90.126129
[L_front_hand01_02]
46 71.020905 -0.000179 0.000030 0.000334 -0.002323 -106.379684 71.020905
47 71.020905 -0.000179 0.000030 0.000334 -0.002323 -106.379684 71.020905
[L_front_hand02_02]
46 71.020927 -0.000119 0.000060 0.000334 -0.002323 -106.379684 71.020927
47 71.020927 -0.000119 0.000060 0.000334 -0.002323 -106.379684 71.020927
[L_front_hand03_02]
46 71.020905 -0.000060 0.000060 0.000334 -0.002323 -106.379684 71.020905
47 71.020905 -0.000060 0.000060 0.000334 -0.002323 -106.379684 71.020905
[R_forearm]
46 322.776428 -0.000060 0.000030 0.194248 -0.081842 -67.911652 322.776428
47 322.776428 -0.000060 0.000030 0.213240 -0.010164 -88.914070 322.776428
[R_front_hand]
46 238.847015 -0.006795 2.210259 42.936222 -10.646152 -26.312963 238.857239
47 238.847015 -0.006795 2.210259 42.936222 -10.646152 -26.312963 238.857239
[R_weapon_bone]
46 155.664093 0.002503 -0.000030 0.003487 0.001180 -90.988930 155.664078
47 155.664093 0.002503 -0.000030 0.003487 0.001180 -90.988930 155.664078
[R_front_hand01_01]
46 87.624611 14.231146 22.918642 -154.633484 -59.950607 61.746033 91.683487
47 87.624611 14.231146 22.918642 -154.633499 -59.950619 61.746044 91.683487
[R_front_hand02_01]
46 89.356956 14.367283 -19.491137 154.602661 58.302849 63.744389 92.579636
47 89.356956 14.367283 -19.491137 154.602661 58.302849 63.744389 92.579636
[R_front_hand03_01]
46 87.286232 -22.307278 -0.143439 0.162155 -0.423168 -75.767921 90.091743
47 87.286232 -22.307278 -0.143439 0.162155 -0.423168 -75.767921 90.091743
[R_front_hand01_02]
46 71.020905 0.000060 0.000119 0.002323 -0.000334 106.381714 71.020905
47 71.020905 0.000060 0.000119 0.002323 -0.000334 106.381714 71.020905
[R_front_hand02_02]
46 71.020844 -0.000030 -0.000119 0.002323 -0.000334 106.381714 71.020836
47 71.020844 -0.000030 -0.000119 0.002323 -0.000334 106.381714 71.020836
[R_front_hand03_02]
46 71.020905 0.000000 0.000030 0.002323 -0.000334 106.381714 71.020905
47 71.020905 0.000000 0.000030 0.002323 -0.000334 106.381714 71.020905
[null_rope01_connect]
46 328.732483 0.000000 -0.000238 -151.524872 -63.499176 -126.330650 328.732483
47 328.732483 0.000000 -0.000238 -153.147507 -64.189484 -122.743675 328.732483
[Rope1_Seg01]
46 -0.000035 -0.001170 0.000146 34.961246 2.891285 -126.919289 0.001180
47 -0.000037 -0.001196 0.000149 30.645567 -0.300632 -128.283707 0.001205
[Rope1_Seg02]
46 139.999863 -0.000179 0.000000 6.726098 2.994156 2.120467 139.999863
47 139.999863 -0.000179 0.000000 7.446797 3.278991 1.821613 139.999863
[Rope1_Seg03]
46 139.999924 0.000060 -0.000060 4.338888 2.666069 0.746264 139.999924
47 139.999924 0.000060 -0.000060 5.418111 3.397530 0.548837 139.999924
[Rope1_Seg04]
46 139.999924 -0.000060 -0.000119 -0.559784 1.125759 -1.764661 139.999924
47 139.999924 -0.000060 -0.000119 -1.704110 1.634069 -3.367097 139.999924
[Rope1_Seg05]
46 139.999832 0.000119 -0.000060 28.408461 12.804184 12.919354 139.999832
47 139.999832 0.000119 -0.000060 31.294661 13.342192 14.634497 139.999832
[Rope1_Seg06]
46 139.999954 0.000119 -0.000060 16.286362 13.754805 5.084000 139.999954
47 139.999954 0.000119 -0.000060 17.330832 14.273996 5.727462 139.999954
[Rope1_Seg07]
46 139.999985 0.000060 0.000000 4.548922 6.022108 0.275765 139.999985
47 139.999985 0.000060 0.000000 4.391311 5.866010 0.211898 139.999985
[Rope1_Seg09]
46 121.602913 0.000119 -0.000089 -89.793175 -1.359789 0.847147 121.602913
47 121.602913 0.000119 -0.000089 -89.793175 -1.359789 0.847147 121.602913
[L_mid_hand01]
46 103.859421 1.038730 8.195221 130.544373 -67.584534 -38.866943 104.187431
47 103.859421 1.038730 8.195221 130.544373 -67.584534 -38.866943 104.187431
[L_mid_hand02]
46 105.572853 -4.139662 -10.864139 -168.923172 43.409309 -73.498886 106.211075
47 105.572853 -4.139662 -10.864139 -168.923172 43.409309 -73.498886 106.211075
[L_mid_hand03]
46 104.641464 17.579376 -3.913581 -6.012627 17.808174 74.893669 106.179977
47 104.641464 17.579376 -3.913581 -6.012627 17.808174 74.893669 106.179977
[null_rope02_connect]
46 328.732849 0.000179 -0.000119 -135.438156 67.548477 -27.904516 328.732849
47 328.732849 0.000179 -0.000119 -138.138123 67.821922 -31.593084 328.732849
[Rope2_Seg01]
46 0.000075 0.000006 0.000000 3.906959 8.780203 -52.969337 0.000075
47 0.000075 0.000003 0.000000 2.513551 5.591335 -52.556717 0.000076
[Rope2_Seg02]
46 139.999741 -0.000060 -0.000119 -19.211832 -0.883676 -14.475433 139.999756
47 139.999741 -0.000060 -0.000119 -19.767202 0.161694 -13.961731 139.999756
[Rope2_Seg03]
46 140.000107 0.000030 0.000000 -6.446635 3.932305 -7.977674 140.000107
47 140.000107 0.000030 0.000000 -5.451954 4.222615 -6.678658 140.000107
[Rope2_Seg04]
46 139.999802 0.000000 -0.000060 -7.777167 1.080574 -9.869453 139.999802
47 139.999802 0.000000 -0.000060 -8.811047 1.960812 -10.756417 139.999802
[Rope2_Seg05]
46 139.999985 -0.000060 0.000119 -5.549589 0.171208 -7.855932 139.999985
47 139.999985 -0.000060 0.000119 -5.777687 1.402769 -8.431148 139.999985
[Rope2_Seg06]
46 139.999893 -0.000030 -0.000119 -2.251541 0.798741 -3.764351 139.999893
47 139.999893 -0.000030 -0.000119 -2.079087 1.295558 -3.697961 139.999893
[Rope2_Seg07]
46 139.999893 0.000060 -0.000060 -1.317360 0.627309 -2.379843 139.999893
47 139.999893 0.000060 -0.000060 -1.184126 0.912888 -2.297976 139.999893
[Rope2_Seg09]
46 121.338966 0.000089 -0.000060 33.793236 -1.359788 -0.847141 121.338966
47 121.338966 0.000089 -0.000060 33.793236 -1.359788 -0.847141 121.338966
[R_mid_hand01]
46 104.680779 11.144459 -10.335981 -16.212063 45.237247 70.462852 105.778534
47 104.680779 11.144459 -10.335981 -16.212063 45.237247 70.462852 105.778534
[R_mid_hand02]
46 104.070427 2.443552 8.231699 49.067368 -67.749771 39.286453 104.424065
47 104.070427 2.443552 8.231699 49.067368 -67.749771 39.286453 104.424065
[R_mid_hand03]
46 106.028137 -11.221827 -5.996406 -177.101105 15.551026 -76.585571 106.788818
47 106.028137 -11.221827 -5.996406 -177.101105 15.551026 -76.585571 106.788818
[spine02]
46 129.756927 0.001550 0.000119 0.361294 -4.044688 -12.949964 129.756927
47 129.756927 0.001550 0.000119 0.360237 -4.044782 -12.920044 129.756927
[spine03]
46 78.613899 0.081635 -4.899024 1.897164 3.830957 16.493067 78.766441
47 78.613892 0.081635 -4.899024 1.896829 3.831122 16.483055 78.766434
[pelvis]
46 169.435242 0.051022 0.000000 -0.060528 -0.180204 14.127795 169.435257
47 169.435242 0.051022 0.000000 -0.060497 -0.180215 14.107864 169.435257
[null_rope03_connect]
46 -1.257226 -2.466202 137.391083 158.144775 -89.193512 -95.178223 137.418976
47 -1.257226 -2.466202 137.391083 156.940857 -89.335007 -94.764359 137.418976
[null_rope04_connect]
46 -1.259640 -2.480268 -137.844437 158.144775 -89.193512 -95.178223 137.872513
47 -1.259640 -2.480268 -137.844437 156.940857 -89.335007 -94.764359 137.872513
[Rope3_Seg01]
46 0.000003 -0.000586 0.000000 11.093344 21.551058 -96.035088 0.000586
47 0.000002 -0.000598 0.000000 10.033623 26.700857 -96.596107 0.000598
[Rope3_Seg02]
46 139.999924 -0.000119 0.000060 0.401358 -0.184718 3.765381 139.999924
47 139.999924 -0.000119 0.000060 0.416028 -0.869351 4.089596 139.999924
[Rope3_Seg03]
46 139.999924 -0.000119 0.000119 0.304799 -0.218344 4.557278 139.999924
47 139.999924 -0.000119 0.000119 0.269447 -1.019863 4.951641 139.999924
[Rope3_Seg04]
46 139.999924 0.000119 0.000000 -0.042155 -0.659738 8.456936 139.999924
47 139.999924 0.000119 0.000000 -0.289554 -1.900299 9.162058 139.999924
[Rope3_Seg05]
46 139.999924 -0.000238 0.000060 0.169726 0.590229 -0.017238 139.999924
47 139.999924 -0.000238 0.000060 0.182844 0.289657 -0.715003 139.999924
[Rope3_Seg06]
46 139.999893 -0.000119 -0.000060 0.453077 1.144117 -5.872188 139.999893
47 139.999893 -0.000119 -0.000060 0.444923 1.639809 -7.109217 139.999893
[Rope3_Seg07]
46 139.999771 0.000060 -0.000119 0.457855 0.499411 -2.014320 139.999771
47 139.999771 0.000060 -0.000119 0.422961 0.609988 -2.637368 139.999771
[Rope3_Seg08]
46 139.999985 -0.000060 0.000000 0.488201 0.298558 -1.193955 139.999985
47 139.999985 -0.000060 0.000000 0.456776 0.354188 -1.579612 139.999985
[Rope3_Seg09]
46 90.185997 -0.000179 -0.000060 89.793228 -1.359877 -0.847183 90.185997
47 90.185997 -0.000179 -0.000060 89.793228 -1.359877 -0.847183 90.185997
[R_rear_hand01]
46 103.366196 -6.073594 -10.757982 -177.714203 24.565960 -73.910950 104.101845
47 103.366196 -6.073594 -10.757982 -177.714203 24.565960 -73.910950 104.101845
[R_rear_hand02]
46 100.509819 12.039542 -7.992327 -12.874829 36.868488 72.167213 101.543350
47 100.509819 12.039542 -7.992327 -12.874829 36.868488 72.167213 101.543350
[R_rear_hand03]
46 101.539970 5.215704 5.435467 71.484581 -71.816628 21.513813 101.819031
47 101.539970 5.215704 5.435467 71.484581 -71.816628 21.513813 101.819031
[Rope4_Seg01]
46 -0.000010 -0.000003 -0.000153 -104.775024 18.694498 -121.964302 0.000153
47 -0.000010 -0.000002 -0.000153 -105.240959 19.739567 -122.037399 0.000153
[Rope4_Seg02]
46 139.999985 0.000060 0.000119 -1.127123 -4.375139 1.173230 139.999985
47 139.999985 0.000060 0.000119 -1.109607 -4.286644 1.127120 139.999985
[Rope4_Seg03]
46 139.999924 0.000000 -0.000238 -1.007356 -4.969852 1.233528 139.999924
47 139.999924 0.000000 -0.000238 -0.999144 -4.871342 1.182760 139.999924
[Rope4_Seg04]
46 139.999985 0.000000 0.000119 -0.962583 -11.214073 0.558357 139.999985
47 139.999985 0.000000 0.000119 -0.865879 -10.988965 0.134650 139.999985
[Rope4_Seg05]
46 139.999802 -0.000060 -0.000119 -0.233172 -3.764326 1.874940 139.999802
47 139.999802 -0.000060 -0.000119 -0.274376 -3.931725 1.985674 139.999802
[Rope4_Seg06]
46 139.999924 0.000000 0.000060 0.757784 11.622622 3.226035 139.999924
47 139.999924 0.000000 0.000060 0.700825 11.437280 4.247998 139.999924
[Rope4_Seg07]
46 139.999802 0.000000 0.000000 0.627697 6.490366 1.691842 139.999802
47 139.999802 0.000000 0.000000 0.485952 6.450919 2.263252 139.999802
[Rope4_Seg08]
46 139.999924 0.000000 0.000119 -1.311244 2.499133 0.819033 139.999924
47 139.999924 0.000000 0.000119 -1.410346 2.438623 1.064980 139.999924
[Rope4_Seg09]
46 90.185791 0.000060 0.000060 -135.617828 2.228885 0.850567 90.185791
47 90.185791 0.000060 0.000060 -135.617828 2.228885 0.850567 90.185791
[L_rear_hand01]
46 101.696655 -8.392275 -7.654577 -12.874829 -36.868488 107.832764 102.329041
47 101.696655 -8.392275 -7.654577 -12.874829 -36.868488 107.832764 102.329041
[L_rear_hand02]
46 102.726799 -1.568258 5.773216 71.484581 71.816628 158.486160 102.900848
47 102.726799 -1.568258 5.773216 71.484581 71.816628 158.486160 102.900848
[L_rear_hand03]
46 104.552910 9.721220 -10.420293 -177.714203 -24.565960 -106.089035 105.519653
47 104.552910 9.721220 -10.420293 -177.714203 -24.565960 -106.089035 105.519653
